<!-- <svg width="102" height="16" viewBox="0 0 102 16" fill="#FF1A42" xmlns="http://www.w3.org/2000/svg"> -->
<svg width="102" height="16" viewBox="0 0 102 16" fill="#F5F5F5" xmlns="http://www.w3.org/2000/svg">
<path d="M0.182045 15.4603L2.10355 0.881611H10.8983L10.5471 3.71395H5.03337L4.65635 6.59855H10.1496L9.78663 9.37275H4.30282L3.50415 15.4603H0.182045Z" />
<path d="M10.7174 1.04137L10.4062 3.55424H4.89302L4.47431 6.7589H9.96751L9.64628 9.21363H4.16306L3.36439 15.3011H0.364099L2.24332 1.04196H10.7174M11.0786 0.721901H10.7168H2.24332H1.9632L1.92679 0.999674L0.0475681 15.2588L0 15.62H0.364686H3.36498H3.6451L3.68151 15.3422L4.44377 9.53251H9.64686H9.92757L9.96398 9.25474L10.2852 6.80001L10.3328 6.43884H9.96868H4.83899L5.17432 3.87371H10.4068H10.6892L10.7239 3.59359L11.0351 1.08071L11.0786 0.721901Z" />
<path d="M16.1683 15.8402C15.2452 15.8402 14.4083 15.6541 13.6807 15.287C12.9543 14.9206 12.3001 14.3545 11.7357 13.6045L11.6611 13.5059L13.501 11.1891L13.6185 11.3929C13.9409 11.952 14.3161 12.3689 14.7343 12.6332C15.1477 12.8945 15.6433 13.0273 16.2071 13.0273C16.7979 13.0273 17.2642 12.8687 17.5918 12.5557C17.9219 12.2403 18.0828 11.8128 18.0828 11.249C18.0828 10.8896 17.99 10.5784 17.7991 10.2971C17.6065 10.014 17.307 9.75918 16.9089 9.53837C16.8043 9.47964 16.6522 9.39508 16.452 9.28526C15.2557 8.63399 14.4712 8.09137 14.053 7.62567C13.7477 7.27919 13.5128 6.87986 13.3542 6.43765C13.1962 5.9978 13.1158 5.51566 13.1158 5.00534C13.1158 3.73804 13.5785 2.66453 14.4911 1.81536C15.4008 0.969709 16.5618 0.540424 17.9407 0.540424C18.7728 0.540424 19.5233 0.697809 20.1717 1.00905C20.8229 1.32148 21.3838 1.79539 21.8389 2.41788L21.9099 2.51478L20.1564 4.78159L20.0401 4.56431C19.8005 4.1174 19.5051 3.78032 19.1604 3.56245C18.818 3.34575 18.414 3.23652 17.9601 3.23652C17.4515 3.23652 17.0263 3.38392 16.6975 3.67402C16.3704 3.96354 16.2112 4.32236 16.2112 4.77161C16.2112 5.35006 16.7803 5.96491 17.9025 6.60032C18.118 6.72365 18.2983 6.82877 18.4234 6.90511C19.5098 7.54346 20.2621 8.18416 20.6567 8.80665C21.0543 9.43384 21.2563 10.2489 21.2563 11.2297C21.2563 12.6015 20.7848 13.7261 19.8551 14.5717C18.9296 15.4133 17.6893 15.8402 16.1683 15.8402Z" />
<path d="M17.9407 0.700815C18.7523 0.700815 19.4728 0.85174 20.103 1.15359C20.7331 1.45544 21.2687 1.90821 21.7103 2.5125L20.1811 4.48921C19.9274 4.01529 19.6161 3.66176 19.2462 3.42804C18.8762 3.19431 18.4475 3.07744 17.9601 3.07744C17.4086 3.07744 16.9523 3.23718 16.5918 3.55488C16.2318 3.87318 16.0509 4.27897 16.0509 4.77226C16.0509 5.41531 16.6417 6.07128 17.8232 6.73957C18.0505 6.86936 18.2226 6.97037 18.3394 7.04201C19.4106 7.67155 20.1382 8.28817 20.5211 8.89246C20.904 9.49616 21.096 10.2754 21.096 11.2297C21.096 12.5611 20.6462 13.6357 19.7471 14.4538C18.848 15.2718 17.6547 15.6811 16.1678 15.6811C15.2652 15.6811 14.46 15.502 13.7524 15.1456C13.0447 14.7885 12.4152 14.243 11.8626 13.5095L13.4793 11.4735C13.8164 12.0584 14.2063 12.49 14.6479 12.7689C15.0896 13.0485 15.6087 13.1877 16.2065 13.1877C16.8425 13.1877 17.3411 13.0156 17.7017 12.672C18.0623 12.3279 18.242 11.8534 18.242 11.2497C18.242 10.8598 18.138 10.5133 17.9307 10.2079C17.7228 9.90254 17.408 9.63299 16.9858 9.39926C16.8819 9.34112 16.7292 9.25597 16.5278 9.14615C15.3591 8.51015 14.5734 7.96753 14.1711 7.52004C13.8786 7.18883 13.6561 6.81063 13.504 6.38546C13.3513 5.96029 13.2749 5.50105 13.2749 5.00717C13.2749 3.7798 13.7166 2.75563 14.5992 1.93405C15.483 1.11131 16.5965 0.700815 17.9407 0.700815ZM17.9407 0.381348C16.5195 0.381348 15.3221 0.824726 14.3819 1.69856C13.4353 2.57945 12.9555 3.69171 12.9555 5.00541C12.9555 5.53394 13.0389 6.03428 13.2033 6.49175C13.3683 6.95275 13.6132 7.36911 13.9315 7.72969C14.3637 8.21124 15.163 8.76502 16.3751 9.4251C16.5988 9.54784 16.7456 9.62946 16.829 9.67645C17.2066 9.88551 17.4879 10.1239 17.6664 10.3864C17.8385 10.6401 17.9225 10.922 17.9225 11.2485C17.9225 11.7665 17.778 12.1558 17.4809 12.4395C17.1796 12.7272 16.7627 12.867 16.2065 12.867C15.6733 12.867 15.2064 12.7425 14.8188 12.4976C14.423 12.2475 14.0654 11.8487 13.7559 11.3125L13.521 10.9056L13.2285 11.2738L11.6118 13.3098L11.458 13.503L11.6065 13.7003C12.1856 14.4702 12.8592 15.0516 13.6073 15.4298C14.3578 15.808 15.2188 16 16.1672 16C17.7293 16 19.006 15.559 19.9614 14.6893C20.9257 13.8119 21.4149 12.648 21.4149 11.2292C21.4149 10.2179 21.2047 9.37342 20.7906 8.72039C20.3766 8.06736 19.6285 7.42843 18.5033 6.76659C18.377 6.68966 18.1961 6.58395 17.9812 6.46122C16.9265 5.86456 16.3698 5.28024 16.3698 4.77109C16.3698 4.37058 16.5113 4.05053 16.8026 3.79331C17.1056 3.52611 17.4838 3.39632 17.9595 3.39632C18.3888 3.39632 18.7535 3.49498 19.0747 3.69759C19.3953 3.90019 19.6725 4.21731 19.8986 4.63955L20.1312 5.07411L20.433 4.68418L21.9622 2.70747L22.109 2.5172L21.9675 2.32341C21.4971 1.67918 20.9157 1.18883 20.2404 0.86466C19.5709 0.544018 18.7969 0.381348 17.9407 0.381348Z" />
<path d="M25.8493 15.4603L27.3979 3.69457H23.6964L24.0699 0.881611H34.5113L34.149 3.69457H30.7006L29.1614 15.4603H25.8493Z" />
<path d="M34.3293 1.04137L34.008 3.53486H30.5602L29.0216 15.3011H26.0313L27.5799 3.53486H23.879L24.2102 1.04137H34.3293ZM34.6928 0.721901H34.3293H24.2096H23.9295L23.8925 0.999674L23.5619 3.49258L23.5137 3.85433H23.8784H27.2152L25.7142 15.2594L25.6666 15.6206H26.0307H29.021H29.3018L29.3382 15.3422L30.8409 3.85433H34.0086H34.2899L34.3257 3.57538L34.647 1.08189L34.6928 0.721901Z" />
<path d="M38.8235 15.4603L36.0928 0.881611H39.5394L39.5599 1.01727C39.6163 1.389 40.7897 9.10379 41.1197 11.4411C42.0875 9.11612 45.7091 1.34613 45.8829 0.97381L45.9258 0.881611H49.5439L41.946 15.4603H38.8235Z" />
<path d="M49.2808 1.04137L41.8491 15.3005H38.9562L36.2854 1.04137H39.402C39.402 1.04137 40.9793 11.4111 41.0445 12.0865C41.2201 11.353 46.028 1.04137 46.028 1.04137H49.2808ZM49.8076 0.721901H49.2808H46.028H45.8242L45.7379 0.906299C45.3344 1.77192 42.3641 8.14952 41.1966 10.8533C40.7879 8.0309 39.7702 1.33911 39.7179 0.993214L39.6768 0.721901H39.402H36.2854H35.9002L35.9712 1.10009L38.6421 15.3593L38.6908 15.62H38.9562H41.8491H42.0429L42.1327 15.4479L49.5645 1.18936L49.8076 0.721901Z" />
<path d="M49.383 15.4603L51.3051 0.881611H54.6172L53.0592 12.608H58.0069L57.634 15.4603H49.383Z" />
<path d="M54.4352 1.04137L52.8766 12.7677H57.8242L57.493 15.3005H49.565L51.4449 1.04137H54.4352ZM54.7998 0.721901H54.4352H51.4454H51.1653L51.1289 0.999674L49.2491 15.2588L49.2015 15.62H49.5662H57.4942H57.7749L57.8113 15.3417L58.1425 12.8088L58.1895 12.4477H57.8254H53.2424L54.7529 1.08248L54.7998 0.721901Z" />
<path d="M63.5171 15.4603L65.4392 0.881611H68.7513L67.1933 12.608H72.1403L71.7674 15.4603H63.5171Z" />
<path d="M68.5693 1.04137L67.0113 12.7677H71.9589L71.6277 15.3005H63.6997L65.5795 1.04137H68.5693ZM68.9339 0.721901H68.5693H65.5795H65.2994L65.263 0.999674L63.3832 15.2588L63.3356 15.62H63.7003H71.6283H71.909L71.9454 15.3417L72.2766 12.8088L72.3236 12.4477H71.9595H67.3765L68.8864 1.08248L68.9339 0.721901Z" />
<path d="M74.1746 15.4603L76.0867 0.881611H79.3988L77.4867 15.4603H74.1746Z" />
<path d="M79.2168 1.04137L77.347 15.3005H74.3573L76.2271 1.04137H79.2168ZM79.5809 0.721901H79.2168H76.2271H75.947L75.9105 0.999674L74.0407 15.2588L73.9932 15.62H74.3573H77.347H77.6271L77.6635 15.3422L79.5333 1.08306L79.5809 0.721901Z" />
<path d="M79.9914 15.4603L81.9135 0.881611H90.7077L90.3559 3.71395H84.8427L84.4657 6.59855H89.9589L89.596 9.37275H84.1122L83.3129 15.4603H79.9914Z" />
<path d="M90.5268 1.04137L90.2149 3.55424H84.7024L84.2836 6.7589H89.7768L89.4556 9.21363H83.9724L83.1731 15.3011H80.1734L82.0532 1.04196H90.5268M90.8885 0.721901H90.5268H82.0532H81.7731L81.7367 0.999674L79.8569 15.2588L79.8093 15.62H80.174H83.1737H83.4539L83.4903 15.3422L84.2531 9.53251H89.4562H89.7369L89.7733 9.25415L90.0945 6.79942L90.1421 6.43826H89.778H84.6489L84.9842 3.87312H90.2161H90.4986L90.5332 3.593L90.8451 1.08013L90.8885 0.721901Z" />
<path d="M91.1023 15.4603L93.0244 0.881611H101.819L101.467 3.71395H95.9342L95.5572 6.59855H101.07L100.707 9.37275H95.1843L94.7585 12.6279H100.292L99.9076 15.4603H91.1023Z" />
<path d="M101.638 1.04137L101.326 3.55424H95.7945L95.3757 6.7589H100.888L100.567 9.21363H95.0439L94.5765 12.7877H100.108L99.7673 15.3011H91.2837L93.1647 1.04137H101.638ZM102 0.721901H101.638H93.1647H92.8846L92.8482 0.999674L90.9684 15.2588L90.9208 15.62H91.2855H99.769H100.048L100.086 15.3434L100.427 12.83L100.476 12.4676H100.11H94.9418L95.3258 9.53251H100.568H100.848L100.885 9.25415L101.206 6.79942L101.254 6.43826H100.89H95.741L96.0763 3.87312H101.328H101.611L101.645 3.593L101.957 1.08013L102 0.721901Z" />
</svg>
